# xmcd
#
# Track frame offsets: 
#        150
#        18219
#        40032
#        58895
#        75522
#        99153
#        115279
#        130645
#        157754
#        179923
#        203796
#        229351
#        257232
#        277426
#
# Disc length: 3734 seconds
#
# Revision: 1
# Processed by: cddbd v1.5.2PL0 Copyright (c) Steve Scherf et al.
# Submitted via: ExactAudioCopyFreeDBPlugin 1.0
#
DISCID=bf0e940e
DTITLE=Piotr Bukartyk - Tak jest i już
DYEAR=2012
DGENRE=Alternative
TTITLE0=Tak jest i już
TTITLE1=Bida z nędzą
TTITLE2=Piosenka z praniem w tle
TTITLE3=Nie mówię kto
TTITLE4=Mecenat
TTITLE5=Taki tam grzech
TTITLE6=Nie kokietuj
TTITLE7=Siódma rano w sklepie
TTITLE8=To się nie uda
TTITLE9=Ballada drobiowa
TTITLE10=Co to za film
TTITLE11=Nic na silę
TTITLE12=Z tyłu chmur
TTITLE13=Utwór
EXTD=
EXTT0=
EXTT1=
EXTT2=
EXTT3=
EXTT4=
EXTT5=
EXTT6=
EXTT7=
EXTT8=
EXTT9=
EXTT10=
EXTT11=
EXTT12=
EXTT13=
PLAYORDER=
